<svg width="66" height="21" viewBox="0 0 66 21" fill="none" xmlns="http://www.w3.org/2000/svg">
<path d="M4.49596 8.41427L4.35353 1.52935H0.152344V19.5629H4.49596V12.4683C4.60277 6.98137 6.73896 5.19898 12.4711 4.84949V1.24976C7.34422 1.24976 5.45724 3.17195 4.63837 8.41427H4.49596Z" fill="#0898A0"/>
<path d="M14.4357 19.5629H18.7793V1.52935H14.4357V19.5629Z" fill="#0898A0"/>
<path d="M30.0291 20.1221C35.2272 20.1221 38.2891 18.0252 38.2891 14.4954C38.2891 11.8043 36.5445 10.2666 32.9486 9.49768L28.1065 8.48417C26.5756 8.13468 25.7211 7.3658 25.7211 6.38724C25.7211 4.95434 27.1808 4.08062 29.6018 4.08062C32.2721 4.08062 33.8386 5.33877 33.8386 7.40075H38.0042C38.0042 3.34669 34.8355 0.970173 29.4594 0.970173C24.5462 0.970173 21.4487 3.137 21.4487 6.49208C21.4487 9.21809 23.4781 10.9306 26.8248 11.5946L31.4532 12.5732C33.3402 12.9926 33.9811 13.5867 33.9811 14.6701C33.9811 16.138 32.4857 17.0117 30.0647 17.0117C27.1096 17.0117 25.4363 15.8234 25.2938 13.6915H21.0214C21.1639 17.8155 24.3682 20.1221 30.0291 20.1221Z" fill="#0898A0"/>
<path d="M57.9891 9.95201C57.9891 4.98928 54.5356 0.970173 48.9102 0.970173C43.2493 0.970173 39.511 4.60485 39.511 10.4762C39.511 16.8369 43.3205 20.1221 49.1239 20.1221C53.2183 20.1221 57.277 17.7106 57.8467 13.2722H53.8947C53.4319 15.2992 51.6873 16.802 49.1239 16.802C45.9908 16.802 43.7834 14.8448 43.6766 11.35H57.9891V9.95201ZM48.7322 4.29031C51.6161 4.29031 53.5031 6.03775 53.7167 8.9385H43.6766C43.8902 5.863 46.0264 4.29031 48.7322 4.29031Z" fill="#0898A0"/>
<path d="M65.1031 3.64566C65.1031 5.17451 63.8405 6.41388 62.283 6.41388C60.7256 6.41388 59.463 5.17451 59.463 3.64566C59.463 2.11682 60.7256 0.877441 62.283 0.877441C63.8405 0.877441 65.1031 2.11682 65.1031 3.64566Z" fill="#0898A0"/>
</svg>
